<?xml version="1.0" standalone="no"?>
<!DOCTYPE svg PUBLIC "-//W3C//DTD SVG 20010904//EN"
 "http://www.w3.org/TR/2001/REC-SVG-20010904/DTD/svg10.dtd">
<svg version="1.0" xmlns="http://www.w3.org/2000/svg"
 width="1600.000000pt" height="1600.000000pt" viewBox="0 0 1600.000000 1600.000000"
 preserveAspectRatio="xMidYMid meet">
<metadata>
Created by potrace 1.14, written by Peter Selinger 2001-2017
</metadata>
<g transform="translate(0.000000,1600.000000) scale(0.100000,-0.100000)"
fill="#000000" stroke="none">
<path d="M0 8000 l0 -2560 2557 2 2558 3 6 38 c3 20 3 37 -1 37 -4 0 -4 18 0
40 4 22 4 40 0 40 -4 0 -4 18 0 40 4 22 4 40 0 40 -4 0 -4 18 0 41 4 22 4 55
0 74 -4 18 -4 38 0 45 4 7 4 26 1 44 -4 17 -4 42 -1 56 4 14 3 37 -1 52 -4 14
-5 29 -2 31 6 7 8 116 1 122 -3 3 -2 26 2 50 4 25 3 48 -2 51 -4 3 -6 9 -4 13
5 8 7 36 7 141 0 105 -2 133 -7 141 -2 4 0 10 5 13 4 3 5 24 1 46 -4 22 -4 42
0 45 4 2 4 25 0 50 -4 25 -4 48 0 50 4 2 4 25 0 50 -4 25 -4 45 0 45 4 0 4 20
0 45 -4 24 -4 49 0 55 4 6 4 29 0 51 -4 22 -4 41 0 44 4 3 4 23 0 45 -4 22 -4
42 0 45 4 2 4 25 0 50 -4 25 -4 45 -1 45 3 0 6 20 6 45 0 25 -2 45 -5 45 -3 0
-4 26 -2 57 4 74 2 124 -4 134 -2 4 0 10 5 13 4 3 5 23 1 45 -4 22 -4 45 0 51
4 6 4 29 0 51 -4 22 -4 41 0 44 4 2 4 25 0 50 -4 25 -4 45 0 45 4 0 4 20 0 45
-4 24 -4 49 0 55 4 6 4 29 0 51 -4 22 -4 41 0 44 4 3 4 23 0 45 -4 22 -4 42 0
45 4 2 4 25 0 50 -4 25 -4 45 -1 45 3 0 6 20 6 45 0 25 -3 45 -7 45 -3 0 -4 8
-2 18 7 28 10 172 3 172 -3 0 -3 20 1 45 4 25 4 45 0 45 -3 0 -4 23 0 50 4 28
3 50 0 50 -4 0 -4 20 0 45 4 25 5 47 2 50 -3 2 -4 31 -3 62 3 80 1 125 -5 134
-2 4 0 10 5 13 4 3 5 24 1 46 -4 22 -4 42 0 45 4 2 4 25 0 50 -4 25 -4 45 -1
45 3 0 6 20 6 45 0 25 -3 45 -7 45 -3 0 -4 8 -2 18 7 28 10 172 3 172 -3 0 -3
20 1 45 4 25 4 45 0 45 -3 0 -4 23 0 50 4 28 3 50 0 50 -4 0 -4 20 0 45 4 25
5 47 2 50 -3 2 -4 31 -3 62 3 80 1 125 -5 134 -2 4 0 10 5 13 4 3 5 24 1 46
-4 22 -4 42 0 45 4 2 4 25 0 50 -4 25 -4 45 -1 45 3 0 6 20 6 45 0 25 -2 45
-5 45 -3 0 -4 26 -2 57 4 74 2 124 -4 134 -2 4 0 10 5 13 4 3 5 24 1 46 -4 22
-4 40 -1 40 4 0 5 18 3 40 l-4 40 -2559 0 -2559 0 0 -2560z"/>
<path d="M5438 10548 c-2 -6 -1 -33 2 -60 4 -26 4 -48 1 -48 -3 0 -6 -40 -6
-90 0 -49 3 -90 6 -90 4 0 3 -15 -1 -34 -4 -19 -4 -39 0 -46 4 -7 4 -26 0 -44
-4 -17 -4 -40 0 -51 4 -11 4 -30 -1 -41 -4 -12 -6 -24 -4 -26 8 -8 11 -109 4
-114 -4 -2 -3 -19 1 -38 4 -19 4 -40 0 -46 -4 -7 -4 -24 0 -39 4 -14 4 -35 0
-46 -4 -11 -4 -29 0 -40 4 -11 4 -31 1 -45 -4 -14 -6 -34 -5 -45 5 -57 6 -81
4 -90 -4 -23 -2 -117 3 -121 3 -3 2 -18 -2 -32 -5 -15 -5 -36 -1 -47 4 -11 4
-34 0 -51 -4 -18 -4 -37 0 -44 4 -6 4 -26 1 -43 -4 -18 -4 -51 -1 -74 4 -24 3
-43 -1 -43 -4 0 -5 -8 -3 -17 9 -44 11 -94 4 -98 -4 -3 -4 -20 0 -39 4 -19 4
-40 0 -46 -4 -7 -4 -24 0 -39 4 -14 4 -35 0 -46 -4 -11 -4 -30 1 -41 4 -12 6
-24 3 -26 -8 -8 -10 -73 -3 -104 3 -18 3 -37 -1 -44 -4 -7 -4 -27 0 -45 4 -18
4 -38 0 -45 -4 -6 -4 -29 0 -51 4 -21 5 -39 1 -39 -7 0 -5 -119 2 -126 3 -3 1
-19 -3 -37 -4 -18 -4 -41 0 -52 4 -11 4 -29 0 -40 -3 -11 -4 -33 0 -50 3 -16
3 -47 -1 -67 -3 -21 -4 -38 0 -38 3 0 6 -37 7 -83 1 -79 9 -189 19 -252 11
-68 14 -83 30 -160 21 -100 21 -98 40 -165 21 -72 21 -73 27 -90 39 -111 73
-204 90 -240 42 -95 103 -215 111 -218 4 -2 7 -8 7 -13 0 -5 26 -50 57 -101
187 -303 459 -584 753 -777 47 -31 87 -59 88 -63 2 -5 12 -8 23 -8 10 0 19 -4
19 -9 0 -5 12 -14 28 -20 15 -6 45 -21 67 -34 82 -47 338 -156 405 -172 8 -2
47 -13 85 -25 69 -20 276 -67 305 -68 14 -1 45 -6 115 -18 54 -10 458 -12 530
-3 39 5 88 11 110 14 41 5 52 7 120 20 22 5 45 9 50 10 6 0 24 4 40 9 17 4 50
12 75 18 25 5 63 16 85 23 97 30 152 49 175 58 14 6 27 11 30 12 3 1 22 9 44
18 21 9 40 17 43 17 8 0 220 108 271 138 29 18 57 32 62 32 5 0 13 6 17 13 4
6 20 18 35 26 37 19 203 144 279 211 96 84 230 222 302 310 85 106 217 299
217 319 0 6 5 11 10 11 6 0 10 4 10 8 0 4 23 50 51 102 28 52 51 101 52 108 0
6 4 12 8 12 5 0 11 16 15 35 3 19 10 35 14 35 5 0 12 15 15 33 4 17 11 37 15
42 8 11 76 217 84 256 3 13 9 39 15 57 5 18 10 35 10 37 0 6 11 69 18 100 2
11 6 34 8 50 3 17 7 41 10 54 5 27 17 145 19 199 1 20 5 42 9 48 3 6 4 14 0
18 -3 3 -6 27 -5 54 1 26 1 92 1 147 0 96 1 117 1 150 1 33 1 111 0 130 -1 11
-1 27 -1 35 2 92 1 122 -4 130 -3 6 -2 10 3 10 5 0 6 19 2 43 -3 24 -3 52 0
63 4 10 4 31 -1 46 -4 14 -5 29 -2 31 6 6 8 115 2 121 -2 3 -2 39 1 81 3 41 2
83 -1 92 -3 9 -3 31 1 47 3 17 3 50 0 74 -4 23 -4 42 0 42 4 0 4 20 0 43 -3
24 -3 52 0 63 4 10 4 31 -1 46 -4 14 -5 29 -2 31 6 6 8 115 2 121 -2 3 -2 39
1 81 3 41 2 83 -1 92 -3 9 -3 31 1 47 3 17 3 50 0 74 -4 23 -4 42 0 42 4 0 4
20 0 43 -3 24 -3 52 0 63 4 10 4 31 -1 46 -4 14 -5 29 -2 31 6 6 8 115 2 121
-2 3 -2 39 1 81 3 41 2 83 -1 92 -3 9 -3 31 1 47 3 17 3 50 0 74 -4 23 -4 42
-1 42 4 0 5 18 3 40 l-4 40 -2558 0 c-1923 0 -2559 -3 -2562 -12z"/>
<path d="M12157 8005 c703 -1405 1280 -2555 1283 -2555 3 0 580 1150 1283
2555 l1277 2555 -2560 0 -2560 0 1277 -2555z"/>
</g>
</svg>
