<?xml version="1.0" standalone="no"?>
<!DOCTYPE svg PUBLIC "-//W3C//DTD SVG 20010904//EN"
 "http://www.w3.org/TR/2001/REC-SVG-20010904/DTD/svg10.dtd">
<svg version="1.0" xmlns="http://www.w3.org/2000/svg"
 width="512.000000pt" height="512.000000pt" viewBox="0 0 512.000000 512.000000"
 preserveAspectRatio="xMidYMid meet">
<metadata>
Created by potrace 1.14, written by Peter Selinger 2001-2017
</metadata>
<g transform="translate(0.000000,512.000000) scale(0.100000,-0.100000)"
fill="#000000" stroke="none">
<path d="M486 5100 c-219 -58 -381 -211 -458 -431 l-23 -64 0 -2045 0 -2045
23 -65 c70 -196 203 -336 389 -409 28 -11 63 -22 77 -24 14 -1 28 -6 32 -10 4
-4 912 -7 2018 -7 2244 0 2068 -5 2226 72 162 80 297 254 335 428 11 54 13
400 14 2060 1 2200 5 2048 -62 2193 -78 167 -245 304 -432 354 -17 4 -939 8
-2050 9 -1936 2 -2023 2 -2089 -16z"/>
</g>
</svg>
