<svg width="400" height="128" viewBox="0 0 400 128" fill="none" xmlns="http://www.w3.org/2000/svg">
<path d="M336 116.82L280.09 5H391.91L336 116.82Z" stroke="black" stroke-width="10"/>
<mask id="path-2-inside-1_210_31" fill="white">
<path fill-rule="evenodd" clip-rule="evenodd" d="M264 0H136V64C136 80.9739 142.743 97.2525 154.745 109.255C166.747 121.257 183.026 128 200 128C216.974 128 233.253 121.257 245.255 109.255C257.257 97.2525 264 80.9739 264 64V0Z"/>
</mask>
<path d="M136 0V-10H126V0H136ZM264 0H274V-10H264V0ZM136 64H126H136ZM154.745 109.255L147.674 116.326L154.745 109.255ZM245.255 109.255L238.184 102.184L245.255 109.255ZM136 10H264V-10H136V10ZM146 64V0H126V64H146ZM161.816 102.184C151.689 92.0568 146 78.3217 146 64H126C126 83.626 133.796 102.448 147.674 116.326L161.816 102.184ZM200 118C185.678 118 171.943 112.311 161.816 102.184L147.674 116.326C161.552 130.204 180.374 138 200 138V118ZM238.184 102.184C228.057 112.311 214.322 118 200 118V138C219.626 138 238.448 130.204 252.326 116.326L238.184 102.184ZM254 64C254 78.3217 248.311 92.0568 238.184 102.184L252.326 116.326C266.204 102.448 274 83.626 274 64H254ZM254 0V64H274V0H254Z" fill="black" mask="url(#path-2-inside-1_210_31)"/>
<path d="M5 5H123V123H5V5Z" stroke="black" stroke-width="10"/>
</svg>
