<svg width="400" height="128" viewBox="0 0 400 128" fill="none" xmlns="http://www.w3.org/2000/svg">
<path d="M280.09 5H391.91L336 116.82L280.09 5Z" stroke="black" stroke-width="10"/>
<mask id="path-2-inside-1_210_37" fill="white">
<path fill-rule="evenodd" clip-rule="evenodd" d="M264 5C264 2.23858 261.761 0 259 0H141C138.239 0 136 2.23858 136 5V64C136 80.9739 142.743 97.2525 154.745 109.255C166.747 121.257 183.026 128 200 128C216.974 128 233.253 121.257 245.255 109.255C257.257 97.2525 264 80.9739 264 64V5Z"/>
</mask>
<path d="M136 64L126 64L126 64L136 64ZM154.745 109.255L147.674 116.326L154.745 109.255ZM245.255 109.255L238.184 102.184L238.184 102.184L245.255 109.255ZM141 10H259V-10H141V10ZM146 64V5H126V64H146ZM161.816 102.184C151.689 92.0568 146 78.3217 146 64L126 64C126 83.626 133.796 102.448 147.674 116.326L161.816 102.184ZM200 118C185.678 118 171.943 112.311 161.816 102.184L147.674 116.326C161.552 130.204 180.374 138 200 138V118ZM238.184 102.184C228.057 112.311 214.322 118 200 118V138C219.626 138 238.448 130.204 252.326 116.326L238.184 102.184ZM254 64C254 78.3217 248.311 92.0568 238.184 102.184L252.326 116.326C266.204 102.448 274 83.626 274 64H254ZM254 5V64H274V5H254ZM259 10C256.239 10 254 7.76142 254 5H274C274 -3.28427 267.284 -10 259 -10V10ZM141 -10C132.716 -10 126 -3.28427 126 5H146C146 7.76142 143.761 10 141 10V-10Z" fill="black" mask="url(#path-2-inside-1_210_37)"/>
<path d="M5 5H123V123H5V5Z" stroke="black" stroke-width="10"/>
</svg>
